<?xml version="1.0" standalone="no"?>
<!DOCTYPE svg PUBLIC "-//W3C//DTD SVG 20010904//EN"
 "http://www.w3.org/TR/2001/REC-SVG-20010904/DTD/svg10.dtd">
<svg version="1.0" xmlns="http://www.w3.org/2000/svg"
 width="auto" height="auto" viewBox="0 0 1890.000000 1417.000000"
 preserveAspectRatio="xMidYMid meet">
<metadata>
Created by potrace 1.16, written by Peter Selinger 2001-2019
</metadata>
<g transform="translate(0.000000,1417.000000) scale(0.100000,-0.100000)"
fill="#000000" stroke="none">
<path d="M9465 12009 c-22 -4 -71 -8 -109 -8 -38 -1 -96 -5 -130 -10 -33 -6
-104 -15 -156 -21 -84 -10 -247 -37 -365 -60 -22 -4 -67 -13 -100 -20 -162
-31 -524 -137 -625 -182 -29 -12 -51 -21 -100 -38 -55 -20 -100 -40 -164 -71
-32 -16 -63 -29 -69 -29 -15 0 -332 -154 -435 -212 -18 -10 -74 -43 -125 -75
-50 -31 -101 -61 -112 -67 -32 -17 -208 -138 -223 -153 -7 -7 -17 -13 -21 -13
-4 0 -16 -8 -27 -17 -10 -10 -41 -34 -67 -53 -277 -202 -599 -504 -837 -786
-64 -75 -126 -150 -140 -168 -8 -10 -29 -35 -45 -55 -17 -20 -38 -47 -48 -61
-9 -14 -47 -70 -84 -125 -37 -55 -72 -108 -78 -117 -5 -10 -38 -62 -72 -115
-34 -54 -80 -134 -103 -178 -55 -104 -51 -99 -62 -84 -7 11 -8 10 -4 -4 3 -10
-5 -39 -19 -65 -14 -26 -25 -53 -25 -59 0 -7 -4 -13 -10 -13 -5 0 -10 -9 -10
-19 0 -11 -4 -21 -8 -23 -11 -4 -84 -159 -108 -228 -10 -30 -22 -56 -26 -58
-5 -2 -8 -11 -8 -21 0 -9 -8 -35 -19 -57 -10 -21 -22 -54 -26 -71 -3 -18 -11
-35 -16 -38 -5 -4 -9 -17 -9 -31 0 -13 -4 -24 -10 -24 -5 0 -10 -11 -10 -25 0
-14 -4 -25 -9 -25 -5 0 -11 -12 -14 -27 -3 -16 -12 -50 -21 -78 -8 -27 -20
-70 -27 -95 -6 -25 -15 -52 -20 -62 -4 -9 -11 -39 -15 -67 -4 -28 -11 -54 -15
-57 -5 -3 -9 -21 -9 -40 0 -19 -4 -34 -9 -34 -8 0 -13 -21 -25 -110 -2 -14 -6
-32 -9 -40 -3 -8 -8 -28 -11 -45 -3 -16 -10 -52 -15 -80 -42 -208 -69 -554
-69 -890 -1 -320 25 -597 87 -920 5 -27 14 -79 20 -115 17 -98 57 -256 96
-375 32 -99 34 -110 24 -168 -5 -34 -16 -105 -24 -157 -14 -89 -20 -129 -45
-265 -5 -30 -14 -80 -20 -110 -25 -139 -30 -166 -41 -250 -6 -49 -15 -99 -20
-110 -4 -11 -10 -38 -13 -60 -3 -22 -10 -66 -16 -97 -25 -139 -31 -177 -40
-238 -5 -36 -14 -94 -21 -130 -17 -89 -23 -655 -8 -692 6 -15 12 -39 14 -55
11 -87 19 -124 26 -129 5 -3 9 -16 9 -29 0 -13 5 -27 10 -30 6 -3 10 -13 10
-21 0 -8 16 -48 35 -88 19 -41 35 -79 35 -85 0 -6 4 -11 8 -11 4 0 16 -13 25
-30 10 -16 23 -35 30 -42 7 -7 23 -28 36 -46 20 -28 57 -62 164 -148 9 -8 20
-14 22 -14 20 0 85 -53 85 -69 0 -11 3 -21 8 -23 4 -1 16 -19 26 -38 50 -90
145 -189 252 -260 40 -28 76 -50 80 -50 7 0 68 -26 96 -41 10 -5 27 -9 38 -9
11 0 20 -4 20 -9 0 -5 15 -11 33 -14 17 -4 57 -12 87 -18 70 -15 471 -16 560
-1 36 7 85 14 110 18 25 3 49 10 55 15 5 5 24 9 41 9 18 0 35 4 38 9 3 5 20
11 38 14 54 9 136 31 144 40 4 4 18 7 31 7 13 0 23 5 23 10 0 6 11 10 24 10
14 0 28 5 31 10 3 6 15 10 26 10 10 0 19 3 19 8 0 4 19 13 43 20 39 12 326
149 337 161 3 3 25 17 50 30 25 13 73 41 107 63 61 39 63 40 94 24 18 -9 38
-16 46 -16 7 0 13 -4 13 -10 0 -5 7 -10 15 -10 8 0 23 -4 33 -10 9 -5 35 -16
57 -26 22 -9 60 -25 85 -36 25 -11 54 -24 65 -29 28 -12 351 -115 405 -129 25
-7 54 -16 65 -20 11 -5 27 -9 35 -9 8 0 33 -5 55 -10 22 -6 54 -13 70 -16 17
-4 39 -10 50 -15 20 -9 35 -12 165 -34 41 -7 82 -15 90 -18 8 -4 35 -9 60 -13
25 -3 77 -10 115 -15 298 -41 657 -57 933 -42 119 7 251 17 292 22 168 21 237
31 285 40 28 5 79 14 115 20 197 34 592 133 675 169 11 5 36 14 55 21 19 7 49
19 67 26 17 8 36 14 42 14 6 0 19 4 29 9 9 5 28 13 42 19 14 5 46 19 72 31 26
12 51 21 54 21 6 0 33 11 119 50 66 30 387 189 430 214 22 12 67 38 100 56 59
32 365 236 375 249 3 4 37 29 75 56 39 27 72 51 75 54 3 4 23 19 45 36 22 16
45 34 52 40 6 5 40 33 74 60 180 145 528 502 702 720 26 33 56 69 65 80 47 57
142 186 166 225 15 25 32 54 39 65 7 11 14 22 17 25 12 12 59 87 85 136 9 17
25 41 35 52 11 12 20 26 20 32 0 6 11 28 25 50 14 22 25 44 25 50 0 5 3 10 8
10 4 0 18 24 32 53 14 28 28 54 31 57 3 3 12 20 20 38 8 17 17 32 22 32 4 0 7
6 6 13 -2 19 12 57 22 57 5 0 9 9 9 20 0 11 5 20 10 20 6 0 10 9 10 20 0 11 4
20 10 20 5 0 12 16 16 35 3 19 10 35 15 35 5 0 9 9 9 20 0 11 5 20 10 20 6 0
10 7 10 15 0 8 4 23 9 33 14 26 37 82 56 137 20 57 34 93 46 117 5 9 12 35 15
58 4 22 10 40 15 40 5 0 9 7 9 16 0 8 7 39 16 67 8 29 20 70 26 92 6 22 15 44
20 50 4 5 8 21 8 36 0 15 4 30 9 33 5 3 11 18 14 33 3 16 13 57 22 93 18 75
44 202 50 245 3 17 9 57 15 90 6 33 14 89 19 125 5 36 11 76 14 90 7 27 28
284 33 395 15 336 15 437 0 511 -9 42 -16 106 -16 143 0 117 -38 374 -90 606
-28 125 -40 181 -47 223 -3 18 -9 35 -14 38 -5 3 -9 18 -9 34 0 16 -4 32 -10
35 -5 3 -10 19 -10 36 0 16 -4 29 -10 29 -5 0 -10 10 -10 23 0 22 -25 107 -41
139 -5 10 -9 27 -9 38 0 11 -4 20 -10 20 -5 0 -10 10 -10 23 0 13 -4 27 -9 33
-5 5 -19 38 -31 74 -23 68 -45 123 -61 152 -5 10 -9 25 -9 33 0 8 -4 15 -10
15 -5 0 -10 5 -10 11 0 19 -127 285 -189 394 -33 59 -61 111 -61 116 0 5 -4 9
-10 9 -5 0 -10 4 -10 10 0 13 -116 195 -175 275 -16 23 -38 52 -48 66 -136
189 -175 241 -229 303 -35 40 -85 99 -113 132 -141 169 -496 493 -730 668 -49
37 -98 74 -108 82 -35 28 -306 199 -416 262 -25 13 -66 37 -91 52 -47 28 -246
126 -315 155 -22 10 -69 31 -105 47 -72 33 -89 40 -140 58 -19 7 -48 19 -65
25 -16 7 -46 18 -65 25 -19 7 -44 16 -55 20 -34 15 -243 80 -308 96 -157 39
-262 63 -320 71 -20 3 -40 9 -43 14 -3 5 -22 9 -43 9 -20 0 -41 4 -46 9 -6 5
-30 12 -55 15 -25 3 -99 12 -165 20 -116 15 -222 26 -445 46 -128 11 -450 11
-505 -1z m540 -269 c266 -15 531 -47 655 -79 19 -5 89 -21 155 -36 66 -15 131
-30 145 -35 14 -4 43 -13 65 -19 71 -19 207 -62 315 -98 94 -32 148 -53 285
-111 183 -78 556 -280 734 -398 40 -27 80 -53 88 -59 166 -110 243 -168 332
-250 36 -34 84 -76 106 -94 22 -19 85 -77 140 -129 55 -52 121 -110 146 -128
25 -19 59 -53 75 -76 16 -24 64 -85 107 -136 135 -161 311 -404 418 -577 129
-207 196 -334 293 -555 26 -58 51 -114 56 -125 23 -52 121 -320 148 -405 52
-163 99 -359 133 -555 5 -33 14 -87 18 -120 5 -33 11 -76 14 -95 44 -270 53
-803 18 -1095 -6 -49 -16 -130 -22 -180 -22 -193 -56 -349 -140 -645 -61 -216
-149 -470 -170 -494 -5 -6 -9 -16 -9 -23 0 -16 -23 -67 -111 -248 -164 -336
-321 -592 -529 -860 -179 -231 -466 -535 -666 -705 -68 -58 -139 -116 -164
-135 -15 -11 -72 -53 -126 -94 -110 -84 -418 -285 -539 -352 -179 -100 -486
-240 -725 -332 -36 -14 -85 -30 -110 -37 -25 -7 -54 -16 -65 -20 -11 -5 -31
-11 -45 -15 -14 -3 -68 -18 -120 -32 -98 -26 -130 -33 -215 -52 -27 -6 -81
-18 -120 -26 -38 -8 -99 -20 -135 -26 -36 -6 -87 -15 -115 -20 -71 -14 -189
-26 -435 -44 -183 -14 -250 -15 -455 -5 -224 10 -422 28 -575 51 -36 5 -99 14
-140 19 -41 6 -100 17 -130 26 -30 9 -70 18 -88 21 -18 3 -35 9 -38 14 -3 5
-16 9 -29 9 -13 0 -34 4 -47 9 -13 5 -41 14 -63 19 -106 28 -455 145 -455 152
0 11 -58 40 -82 40 -10 0 -18 5 -18 11 0 7 -9 9 -23 6 -12 -4 -28 -2 -36 2 -9
6 24 38 116 111 154 124 225 184 363 310 144 131 130 123 181 104 68 -24 318
-92 454 -122 255 -58 717 -99 975 -87 160 7 340 23 410 34 30 6 102 17 160 27
410 66 758 180 1165 379 308 150 561 316 860 564 201 166 545 541 705 769 145
205 379 635 459 842 108 282 210 642 241 855 82 558 73 987 -32 1500 -81 400
-243 827 -453 1190 -404 701 -1025 1274 -1767 1629 -293 141 -619 250 -958
321 -315 66 -731 96 -1059 76 -111 -6 -225 -16 -253 -21 -29 -5 -100 -16 -158
-25 -359 -55 -712 -158 -1035 -302 -343 -153 -553 -277 -860 -509 -183 -138
-203 -155 -378 -324 -293 -284 -548 -615 -739 -960 -46 -84 -188 -366 -188
-375 0 -4 -7 -21 -15 -38 -51 -111 -153 -424 -199 -607 -87 -356 -118 -625
-116 -1033 1 -288 43 -629 111 -897 16 -63 31 -126 35 -140 14 -56 55 -182 97
-295 38 -105 55 -146 97 -240 244 -547 583 -1007 1031 -1402 198 -174 334
-274 557 -413 43 -27 50 -35 40 -47 -39 -47 -336 -281 -497 -391 -119 -82 -87
-85 -243 23 -291 202 -684 565 -882 815 -262 330 -438 600 -583 892 -46 93
-83 170 -83 172 0 3 -14 35 -31 72 -28 60 -67 157 -89 224 -4 14 -23 63 -40
110 -18 47 -36 99 -40 115 -5 17 -16 55 -25 85 -9 30 -19 66 -22 80 -2 14 -8
34 -13 45 -5 11 -11 34 -15 50 -3 17 -10 46 -14 65 -92 384 -138 813 -127
1175 9 293 25 463 75 765 11 69 66 315 81 365 5 17 21 71 35 120 14 50 30 99
34 110 5 11 23 65 41 120 113 345 304 730 545 1095 123 187 174 254 323 430
134 157 459 485 582 586 193 160 444 338 630 449 63 37 131 78 150 90 97 60
392 198 615 287 98 39 292 105 410 138 125 36 127 36 305 75 167 37 267 54
475 81 253 33 538 40 850 24z m95 -861 c145 -9 360 -38 440 -59 19 -5 78 -19
130 -31 317 -71 602 -177 905 -333 348 -181 629 -383 914 -661 221 -216 383
-416 565 -700 217 -337 424 -843 495 -1210 7 -33 16 -80 21 -105 8 -41 19
-108 49 -315 28 -195 22 -624 -13 -915 -46 -372 -199 -878 -364 -1201 -220
-430 -420 -710 -756 -1057 -125 -130 -399 -356 -571 -472 -98 -66 -146 -97
-228 -146 -97 -58 -327 -173 -437 -219 -36 -15 -78 -33 -95 -40 -143 -63 -448
-157 -630 -194 -55 -11 -113 -22 -130 -26 -413 -83 -1028 -85 -1430 -6 -134
27 -258 56 -325 76 -30 9 -73 21 -95 27 -22 6 -42 13 -44 14 -2 2 41 52 95
111 245 266 607 695 769 912 11 14 52 67 92 116 41 50 86 106 101 125 128 160
498 620 547 679 33 40 69 85 80 100 10 14 25 30 32 34 7 4 13 17 13 28 0 12 8
23 20 26 11 3 20 11 20 17 0 7 11 19 25 26 14 7 25 17 25 22 0 11 29 39 63 61
l29 19 151 -67 c165 -72 128 -47 637 -436 287 -220 328 -249 345 -249 13 0 14
17 10 133 -4 72 -8 155 -10 182 -2 28 -6 110 -10 183 l-8 133 71 -36 c113 -58
198 -79 347 -83 82 -2 145 1 170 9 22 6 63 18 90 27 66 19 150 59 165 77 7 8
18 15 24 15 17 0 217 198 252 250 88 131 124 253 124 419 0 171 -32 280 -128
430 -44 69 -168 199 -221 231 -40 25 -50 43 -31 55 25 15 270 396 270 420 0 1
18 41 39 87 94 198 150 411 172 653 11 130 6 282 -21 575 -6 58 -10 137 -11
175 0 39 -6 121 -13 184 -15 135 -23 146 -101 137 -92 -9 -289 -35 -350 -45
-33 -6 -100 -15 -150 -21 -417 -48 -581 -88 -772 -184 -56 -28 -105 -48 -109
-43 -4 4 5 21 21 37 51 53 117 177 136 257 7 27 16 56 21 65 5 10 9 75 9 145
0 176 -36 294 -134 442 -78 118 -252 262 -382 318 -105 46 -164 57 -305 56
-179 0 -281 -29 -423 -121 -197 -126 -334 -319 -377 -530 -25 -125 -25 -175 0
-296 38 -186 146 -358 303 -482 92 -73 233 -145 322 -165 85 -20 314 -17 383
4 28 9 52 14 52 11 0 -3 -60 -65 -133 -137 -121 -120 -268 -293 -358 -421 -71
-102 -105 -152 -125 -186 -12 -19 -46 -76 -76 -125 -31 -50 -75 -126 -98 -170
-53 -99 -118 -221 -137 -257 -16 -32 -36 -38 -203 -62 -151 -23 -225 -35 -278
-47 -23 -5 -54 -9 -68 -9 -15 0 -43 -4 -63 -9 -39 -10 -107 -22 -271 -46 -95
-14 -138 -21 -222 -39 -16 -4 -28 -11 -28 -17 0 -16 84 -94 236 -219 222 -183
454 -381 455 -388 1 -4 3 -17 4 -28 2 -20 95 -160 164 -248 17 -21 31 -42 31
-47 0 -13 -117 -156 -132 -162 -7 -2 -103 -117 -213 -255 -110 -138 -205 -251
-211 -252 -6 0 -17 7 -25 16 -29 36 -183 124 -252 146 -112 34 -150 40 -257
39 -118 0 -176 -10 -285 -52 -62 -23 -76 -30 -160 -85 -52 -33 -205 -186 -241
-239 -33 -49 -81 -147 -93 -190 -38 -132 -50 -270 -32 -344 5 -20 15 -61 22
-91 6 -30 16 -62 20 -70 4 -8 22 -44 39 -80 39 -78 61 -108 167 -218 l83 -85
-34 -41 c-67 -82 -428 -446 -454 -459 -24 -11 -31 -10 -58 8 -18 11 -79 49
-135 85 -342 214 -699 541 -950 870 -139 182 -300 433 -368 575 -71 146 -128
272 -150 330 -29 77 -36 93 -51 130 -17 41 -38 106 -67 200 -38 125 -49 170
-77 315 -14 74 -31 158 -36 185 -14 71 -18 106 -36 325 -15 168 -15 229 -6
440 13 286 23 373 62 570 74 366 195 720 344 1012 115 224 288 505 390 632
169 210 387 442 541 575 142 123 418 327 529 391 17 10 72 41 121 70 104 61
288 153 390 194 39 16 88 37 110 47 36 15 141 54 220 81 17 5 39 14 50 19 72
31 440 114 620 139 39 6 97 15 130 21 70 12 422 26 545 22 47 -2 155 -8 240
-14z m1887 -2710 c117 -44 173 -141 173 -302 0 -111 -24 -212 -76 -316 -153
-309 -443 -539 -705 -558 -82 -6 -158 12 -211 49 -41 28 -83 95 -102 160 -79
275 175 724 514 906 49 26 75 36 185 71 55 17 160 13 222 -10z m-2037 -1120
c0 -6 -22 -52 -49 -102 -86 -162 -164 -311 -188 -360 -13 -26 -30 -50 -38 -54
-16 -6 -49 17 -160 111 -38 32 -130 108 -202 169 -73 61 -133 114 -133 118 0
9 8 11 108 28 34 6 88 15 120 21 31 5 131 21 222 35 91 14 181 29 200 34 51
12 120 13 120 0z m745 -499 c55 -44 101 -86 103 -93 1 -7 -48 -96 -109 -198
-61 -101 -148 -244 -191 -316 -44 -73 -84 -135 -89 -138 -5 -3 -54 31 -110 77
-56 46 -116 94 -133 108 -113 89 -196 163 -191 170 3 5 63 55 133 112 156 126
331 267 395 319 27 22 59 39 70 39 12 0 67 -36 122 -80z m672 -672 c6 -7 14
-71 18 -143 4 -71 8 -155 10 -185 15 -238 25 -464 20 -468 -7 -7 -9 -5 -97 62
-83 65 -240 185 -347 266 -47 36 -87 72 -89 81 -2 9 71 75 195 174 108 88 213
175 232 192 41 37 45 38 58 21z m-6347 -980 c0 -10 5 -18 10 -18 6 0 10 -5 10
-10 0 -6 9 -30 21 -55 12 -26 18 -53 15 -67 -3 -13 -3 -17 0 -10 9 19 21 14
29 -10 9 -28 7 -24 31 -75 10 -24 22 -43 26 -43 5 0 8 -9 8 -20 0 -11 4 -20 9
-20 5 0 11 -8 14 -17 7 -22 62 -118 88 -155 10 -14 19 -31 19 -37 0 -6 4 -11
9 -11 5 0 12 -8 15 -17 9 -25 30 -60 49 -81 10 -10 17 -24 17 -30 0 -7 4 -12
9 -12 5 0 12 -8 16 -19 3 -10 15 -29 25 -42 12 -13 18 -31 15 -43 -3 -12 -2
-15 1 -8 9 20 25 3 19 -21 -6 -25 10 -56 22 -43 4 5 2 11 -4 13 -14 5 -18 33
-5 33 4 0 15 -12 24 -28 36 -58 161 -225 188 -252 9 -8 23 -25 31 -37 89 -130
486 -519 724 -708 28 -22 58 -47 69 -57 10 -9 52 -41 92 -70 77 -56 87 -68 54
-68 -11 0 -20 -3 -20 -8 0 -4 -15 -13 -32 -21 -18 -7 -49 -20 -68 -28 -19 -8
-53 -23 -75 -33 -121 -54 -142 -62 -172 -67 -18 -3 -36 -10 -39 -14 -3 -5 -16
-9 -29 -9 -13 0 -27 -4 -30 -10 -3 -5 -17 -10 -30 -10 -13 0 -27 -4 -30 -10
-3 -5 -19 -10 -34 -10 -15 0 -31 -3 -35 -7 -23 -23 -304 -57 -471 -57 -251 0
-382 36 -530 142 -61 44 -63 47 -100 97 -17 22 -32 42 -35 45 -9 7 -76 150
-88 185 -9 27 -28 113 -49 220 -11 59 -8 466 5 570 12 102 38 274 52 353 6 28
15 77 20 107 6 30 14 79 20 108 5 28 14 81 20 117 6 36 13 81 16 100 3 19 8
55 11 80 2 25 8 54 13 65 8 19 13 48 27 160 l6 50 13 -30 c7 -16 13 -38 14
-47z"/>
<path d="M6052 10001 c-32 -30 -35 -40 -33 -96 3 -44 42 -75 94 -75 47 1 73
16 94 56 18 36 9 76 -27 114 -38 41 -84 41 -128 1z"/>
<path d="M6248 9718 c-39 -22 -48 -41 -48 -99 0 -44 32 -77 83 -86 49 -8 91
19 108 69 11 35 11 44 -7 75 -11 21 -32 42 -51 50 -41 17 -41 17 -85 -9z"/>
<path d="M6010 9407 c-38 -33 -51 -69 -39 -111 32 -115 216 -73 192 44 -3 17
-18 44 -33 60 -35 37 -83 40 -120 7z"/>
<path d="M5750 4904 c-44 -32 -63 -76 -54 -129 9 -57 19 -72 64 -95 52 -27 89
-25 130 5 45 33 59 60 60 114 0 45 -29 93 -74 118 -34 19 -88 14 -126 -13z"/>
<path d="M11992 3223 c-77 -38 -65 -160 18 -178 32 -7 62 5 103 43 31 29 34
59 12 103 -26 48 -76 61 -133 32z"/>
<path d="M11590 3192 c-24 -25 -30 -39 -30 -74 0 -61 33 -93 97 -93 38 0 49 5
74 33 31 34 37 69 17 105 -20 38 -38 49 -83 55 -39 4 -48 1 -75 -26z"/>
<path d="M11523 2893 c-31 -6 -73 -59 -73 -93 0 -37 39 -97 68 -104 56 -15
132 35 132 86 0 44 -28 88 -65 104 -19 8 -36 13 -37 13 -2 -1 -13 -4 -25 -6z"/>
<path d="M7595 8430 c-105 -17 -228 -67 -315 -129 -91 -64 -270 -261 -270
-296 0 -5 -6 -16 -13 -24 -42 -49 -87 -227 -87 -345 0 -229 111 -454 305 -618
88 -74 227 -149 320 -173 87 -23 239 -30 321 -16 79 15 179 46 211 67 12 8 29
14 36 14 8 0 22 9 32 20 10 11 24 20 32 20 26 0 230 209 274 281 131 217 145
482 39 714 -20 44 -44 86 -53 94 -10 7 -17 19 -17 25 0 23 -164 188 -229 231
-81 53 -176 98 -256 120 -71 20 -245 28 -330 15z"/>
</g>
</svg>
